<?xml version="1.0" standalone="no"?><svg xmlns="http://www.w3.org/2000/svg" viewBox="0 0 1440 320"><path fill="#f3f4f5" fill-opacity="1" d="M0,224L20,202.7C40,181,80,139,120,117.3C160,96,200,96,240,112C280,128,320,160,360,170.7C400,181,440,171,480,176C520,181,560,203,600,202.7C640,203,680,181,720,192C760,203,800,245,840,256C880,267,920,245,960,229.3C1000,213,1040,203,1080,208C1120,213,1160,235,1200,245.3C1240,256,1280,256,1320,240C1360,224,1400,192,1420,176L1440,160L1440,320L1420,320C1400,320,1360,320,1320,320C1280,320,1240,320,1200,320C1160,320,1120,320,1080,320C1040,320,1000,320,960,320C920,320,880,320,840,320C800,320,760,320,720,320C680,320,640,320,600,320C560,320,520,320,480,320C440,320,400,320,360,320C320,320,280,320,240,320C200,320,160,320,120,320C80,320,40,320,20,320L0,320Z"></path></svg>